<svg xmlns="http://www.w3.org/2000/svg" viewBox="0 0 600 720" preserveAspectRatio="xMidYMid slice">
  
  <rect width="600" height="720" fill="#D0D5ED"></rect>
  
  <g>
    <path d="M80 140 h 360 a 20 20 0 0 1 20 20 v 160 a 20 20 0 0 1 -20 20 h -200 l -40 40 v -40 h -120 a 20 20 0 0 1 -20 -20 v -160 a 20 20 0 0 1 20 -20 z" fill="#3331B7"></path>
    <path d="M170 390 h 360 a 20 20 0 0 1 20 20 v 160 a 20 20 0 0 1 -20 20 h -260 l -30 40 v -40 h -70 a 20 20 0 0 1 -20 -20 v -160 a 20 20 0 0 1 20 -20 z" fill="#EEB94D"></path>
  </g>
  
  <g fill="#FFFFFF" opacity=".95">
    <rect x="110" y="180" width="200" height="10"></rect>
    <rect x="110" y="202" width="260" height="10"></rect>
    <rect x="110" y="224" width="180" height="10"></rect>
    <rect x="110" y="260" width="110" height="28" fill="#E3BAB6"></rect>
    <rect x="232" y="260" width="90" height="28" fill="#D0D5ED"></rect>
  </g>
  <g fill="#3331B7">
    <rect x="200" y="430" width="240" height="10"></rect>
    <rect x="200" y="452" width="300" height="10"></rect>
    <rect x="200" y="474" width="220" height="10"></rect>
    <rect x="200" y="510" width="100" height="28" fill="#3331B7"></rect>
    <rect x="312" y="510" width="130" height="28" fill="#FFFFFF" stroke="#3331B7" stroke-width="3"></rect>
  </g>
  <g font-family="&#39;IBM Plex Mono&#39;, monospace" fill="#3331B7">
    <text x="60" y="50" font-size="16" letter-spacing="2">02 / UI/UX DESIGN</text>
  </g>
</svg>