<svg xmlns="http://www.w3.org/2000/svg" width="24" height="24" viewBox="0 0 24 24" fill="currentColor"><path d="M12 2a10 10 0 0 0-3.16 19.49c.5.1.68-.22.68-.48l-.01-1.7c-2.78.6-3.37-1.34-3.37-1.34-.46-1.16-1.11-1.47-1.11-1.47-.9-.62.07-.6.07-.6 1 .07 1.53 1.03 1.53 1.03.9 1.52 2.34 1.08 2.91.83.09-.65.35-1.09.63-1.34-2.22-.25-4.56-1.11-4.56-4.94 0-1.1.39-1.99 1.03-2.69-.1-.25-.45-1.27.1-2.65 0 0 .84-.27 2.75 1.02A9.6 9.6 0 0 1 12 6.8c.85 0 1.71.11 2.51.34 1.9-1.29 2.75-1.02 2.75-1.02.55 1.38.2 2.4.1 2.65.64.7 1.03 1.6 1.03 2.69 0 3.84-2.34 4.69-4.57 4.94.36.31.68.92.68 1.85l-.01 2.75c0 .27.18.58.69.48A10 10 0 0 0 12 2"></path></svg>