<svg xmlns="http://www.w3.org/2000/svg" width="24" height="24" viewBox="0 0 24 24" fill="currentColor"><path d="M12 15q1.25 0 2.125-.875T15 12q0-1.25-.875-2.125T12 9q-1.25 0-2.125.875T9 12q0 1.25.875 2.125T12 15m0 2q-2.075 0-3.537-1.463T7 12q0-2.075 1.463-3.537T12 7q2.075 0 3.538 1.463T17 12q0 2.075-1.463 3.538T12 17M2 13q-.425 0-.712-.288T1 12q0-.425.288-.712T2 11h2q.425 0 .713.288T5 12q0 .425-.288.713T4 13zm18 0q-.425 0-.712-.288T19 12q0-.425.288-.712T20 11h2q.425 0 .713.288T23 12q0 .425-.288.713T22 13zm-8-8q-.425 0-.712-.288T11 4V2q0-.425.288-.712T12 1q.425 0 .713.288T13 2v2q0 .425-.288.713T12 5m0 18q-.425 0-.712-.288T11 22v-2q0-.425.288-.712T12 19q.425 0 .713.288T13 20v2q0 .425-.288.713T12 23M5.65 7.05 4.575 6q-.3-.275-.288-.7t.288-.725q.3-.3.725-.3t.7.3L7.05 5.65q.275.3.275.712t-.275.688q-.275.3-.687.287t-.713-.287m12.7 12.725-1.05-1.075q-.275-.3-.275-.725t.275-.7q.275-.3.687-.287t.713.287L20.05 18.35q.3.275.288.7t-.288.725q-.3.3-.725.3t-.7-.3M16.95 7.05q-.3-.275-.287-.687t.287-.713l1.075-1.075q.275-.3.7-.287t.725.287q.3.3.3.725t-.3.7L18.35 7.05q-.3.275-.712.275t-.688-.275M3.925 20.05q-.3-.3-.3-.725t.3-.7l1.075-1.075q.3-.275.712-.275t.688.275q.3.275.287.687t-.287.713L5.35 20.05q-.275.3-.7.288t-.725-.288"></path></svg>